TITLE ""
FILE "Disc6Track06.mp3" MP3
  TRACK 01 AUDIO
    TITLE "Disc6Track06_01"
    INDEX 01 00:00:00
  TRACK 02 AUDIO
    TITLE "Disc6Track06_02"
    INDEX 01 00:00:71
  TRACK 03 AUDIO
    TITLE "Disc6Track06_03"
    INDEX 01 00:02:50
  TRACK 04 AUDIO
    TITLE "Disc6Track06_04"
    INDEX 01 00:03:58
  TRACK 05 AUDIO
    TITLE "Disc6Track06_05"
    INDEX 01 00:05:62
  TRACK 06 AUDIO
    TITLE "Disc6Track06_06"
    INDEX 01 00:06:19
  TRACK 07 AUDIO
    TITLE "Disc6Track06_07"
    INDEX 01 00:07:26
  TRACK 08 AUDIO
    TITLE "Disc6Track06_08"
    INDEX 01 00:09:23
  TRACK 09 AUDIO
    TITLE "Disc6Track06_09"
    INDEX 01 00:10:30
  TRACK 10 AUDIO
    TITLE "Disc6Track06_10"
    INDEX 01 00:12:39
  TRACK 11 AUDIO
    TITLE "Disc6Track06_11"
    INDEX 01 00:12:68
  TRACK 12 AUDIO
    TITLE "Disc6Track06_12"
    INDEX 01 00:14:10
  TRACK 13 AUDIO
    TITLE "Disc6Track06_13"
    INDEX 01 00:16:66
  TRACK 14 AUDIO
    TITLE "Disc6Track06_14"
    INDEX 01 00:18:06
  TRACK 15 AUDIO
    TITLE "Disc6Track06_15"
    INDEX 01 00:20:38
  TRACK 16 AUDIO
    TITLE "Disc6Track06_16"
    INDEX 01 00:20:70
  TRACK 17 AUDIO
    TITLE "Disc6Track06_17"
    INDEX 01 00:22:16
  TRACK 18 AUDIO
    TITLE "Disc6Track06_18"
    INDEX 01 00:24:26
  TRACK 19 AUDIO
    TITLE "Disc6Track06_19"
    INDEX 01 00:25:46
  TRACK 20 AUDIO
    TITLE "Disc6Track06_20"
    INDEX 01 00:29:69
  TRACK 21 AUDIO
    TITLE "Disc6Track06_21"
    INDEX 01 00:30:25
  TRACK 22 AUDIO
    TITLE "Disc6Track06_22"
    INDEX 01 00:31:58
  TRACK 23 AUDIO
    TITLE "Disc6Track06_23"
    INDEX 01 00:32:67
  TRACK 24 AUDIO
    TITLE "Disc6Track06_24"
    INDEX 01 00:34:29
  TRACK 25 AUDIO
    TITLE "Disc6Track06_25"
    INDEX 01 00:34:64
  TRACK 26 AUDIO
    TITLE "Disc6Track06_26"
    INDEX 01 00:36:06
  TRACK 27 AUDIO
    TITLE "Disc6Track06_27"
    INDEX 01 00:37:62
  TRACK 28 AUDIO
    TITLE "Disc6Track06_28"
    INDEX 01 00:39:04
  TRACK 29 AUDIO
    TITLE "Disc6Track06_29"
    INDEX 01 00:41:21
  TRACK 30 AUDIO
    TITLE "Disc6Track06_30"
    INDEX 01 00:41:52
  TRACK 31 AUDIO
    TITLE "Disc6Track06_31"
    INDEX 01 00:42:67
  TRACK 32 AUDIO
    TITLE "Disc6Track06_32"
    INDEX 01 00:44:19
  TRACK 33 AUDIO
    TITLE "Disc6Track06_33"
    INDEX 01 00:45:36
  TRACK 34 AUDIO
    TITLE "Disc6Track06_34"
    INDEX 01 00:45:72
  TRACK 35 AUDIO
    TITLE "Disc6Track06_35"
    INDEX 01 00:47:16
  TRACK 36 AUDIO
    TITLE "Disc6Track06_36"
    INDEX 01 00:48:29
  TRACK 37 AUDIO
    TITLE "Disc6Track06_37"
    INDEX 01 00:49:48
  TRACK 38 AUDIO
    TITLE "Disc6Track06_38"
    INDEX 01 00:51:41
  TRACK 39 AUDIO
    TITLE "Disc6Track06_39"
    INDEX 01 00:51:70
  TRACK 40 AUDIO
    TITLE "Disc6Track06_40"
    INDEX 01 00:53:09
  TRACK 41 AUDIO
    TITLE "Disc6Track06_41"
    INDEX 01 00:54:39
  TRACK 42 AUDIO
    TITLE "Disc6Track06_42"
    INDEX 01 00:55:52
